<?xml version="1.0" standalone="no"?>
<!DOCTYPE svg PUBLIC "-//W3C//DTD SVG 20010904//EN"
 "http://www.w3.org/TR/2001/REC-SVG-20010904/DTD/svg10.dtd">
<svg version="1.0" xmlns="http://www.w3.org/2000/svg"
 width="230.000000pt" height="230.000000pt" viewBox="0 0 230.000000 230.000000"
 preserveAspectRatio="xMidYMid meet">
<metadata>
Created by potrace 1.11, written by Peter Selinger 2001-2013
</metadata>
<g transform="translate(0.000000,230.000000) scale(0.100000,-0.100000)"
fill="#000000" stroke="none">
<path d="M1293 2071 c-24 -11 -55 -32 -70 -47 -21 -21 -30 -24 -42 -15 -54 40
-139 53 -198 30 -35 -13 -80 -55 -99 -92 -13 -24 -17 -26 -36 -16 -68 37 -134
29 -192 -21 -33 -29 -64 -109 -51 -130 3 -6 -12 -27 -34 -48 -33 -31 -41 -46
-41 -74 0 -40 28 -81 71 -103 l28 -15 3 -133 3 -132 475 0 475 0 5 124 5 124
42 14 c88 29 142 131 114 215 -15 45 -66 94 -116 111 -35 12 -40 19 -51 61
-24 94 -96 155 -192 162 -43 4 -67 0 -99 -15z"/>
<path d="M634 1227 c-3 -8 -4 -52 -2 -98 l3 -84 475 0 475 0 0 95 0 95 -473 3
c-388 2 -473 0 -478 -11z"/>
<path d="M960 753 c-26 -9 -61 -46 -101 -105 -22 -32 -48 -62 -59 -68 -42 -22
-99 -6 -138 40 -23 27 -4 -40 23 -82 50 -75 129 -113 224 -106 78 6 146 40
174 89 23 41 37 50 37 22 0 -9 18 -33 39 -53 72 -69 209 -79 300 -23 48 30 94
95 105 148 6 29 6 29 -10 10 -8 -11 -19 -26 -23 -33 -4 -7 -26 -16 -49 -19
-54 -7 -80 10 -132 88 -23 33 -56 69 -73 80 -40 24 -114 25 -146 3 -22 -16
-25 -16 -51 0 -27 15 -89 20 -120 9z"/>
<path d="M185 333 c-66 -16 -87 -98 -38 -145 16 -14 45 -32 66 -39 20 -7 37
-19 37 -27 0 -10 -6 -12 -22 -7 -13 4 -41 8 -63 9 -36 1 -40 -2 -43 -25 -4
-36 18 -50 86 -56 102 -9 162 25 162 92 0 44 -22 69 -81 94 -35 15 -48 26 -41
33 7 7 17 6 31 -2 12 -6 34 -10 49 -8 23 2 27 8 27 33 0 21 -7 33 -25 42 -24
12 -105 16 -145 6z"/>
<path d="M392 331 c-8 -5 -12 -22 -10 -42 2 -27 8 -35 27 -37 13 -2 28 1 34 7
6 6 15 11 20 11 7 0 5 -106 -5 -195 l-3 -30 75 0 c68 0 75 2 78 21 2 11 -4 27
-13 34 -11 9 -15 32 -15 90 0 42 3 80 7 83 3 4 14 0 24 -9 31 -28 54 -14 54
31 l0 40 -130 3 c-72 1 -136 -2 -143 -7z"/>
<path d="M753 326 c-47 -21 -73 -70 -73 -136 0 -104 60 -157 169 -148 47 4 59
10 88 41 31 34 33 41 33 107 0 66 -2 73 -34 107 -30 33 -39 37 -92 40 -37 2
-71 -2 -91 -11z m92 -136 c0 -68 -2 -75 -20 -75 -18 0 -20 8 -23 64 -4 75 2
94 25 89 15 -3 18 -15 18 -78z"/>
<path d="M1064 326 c-55 -24 -74 -60 -74 -137 0 -58 4 -72 25 -98 33 -39 84
-55 152 -48 72 8 85 19 81 76 -2 35 -7 47 -21 49 -34 7 -66 -7 -69 -31 -2 -14
-10 -22 -23 -22 -18 0 -20 7 -20 75 0 68 2 75 20 75 12 0 21 -9 25 -25 5 -21
12 -25 45 -25 l40 0 3 48 c3 46 2 48 -32 62 -44 18 -111 19 -152 1z"/>
<path d="M1277 334 c-12 -12 -8 -41 8 -54 22 -18 21 -162 0 -180 -9 -7 -15
-23 -13 -34 3 -19 10 -21 68 -21 l65 0 3 38 c2 20 6 37 10 37 4 0 16 -17 27
-38 19 -36 22 -37 75 -37 72 0 75 17 20 96 l-42 59 42 50 c53 64 50 84 -12 88
-43 3 -48 0 -73 -32 -34 -44 -43 -45 -47 -3 -3 32 -3 32 -63 35 -34 2 -64 0
-68 -4z"/>
<path d="M1604 325 c-4 -8 -1 -28 6 -44 10 -26 10 -95 -2 -206 l-3 -30 125 0
125 0 0 55 0 55 -35 0 c-28 0 -35 -4 -40 -25 -4 -16 -13 -25 -25 -25 -26 0
-33 56 -11 74 14 12 14 16 -1 41 -9 15 -13 35 -10 45 10 24 40 14 47 -15 5
-21 12 -25 40 -25 l35 0 0 55 0 55 -123 3 c-103 2 -123 0 -128 -13z"/>
<path d="M1884 326 c-4 -9 -1 -29 6 -45 10 -26 10 -95 -2 -206 l-3 -30 112 0
113 0 32 33 c32 31 33 35 33 112 0 77 -1 81 -33 112 -32 33 -33 33 -142 36
-94 3 -111 1 -116 -12z m171 -136 c0 -78 -2 -85 -20 -85 -18 0 -20 8 -23 74
-3 86 1 104 25 99 16 -3 18 -15 18 -88z"/>
</g>
</svg>
